<svg xmlns="http://www.w3.org/2000/svg" data-name="Layer 1" viewBox="0 0 64 80" x="0px" y="0px"><title>x-12</title><circle cx="29.5" cy="13.69" r="13.4"/><path d="M46.36,37.64A14.16,14.16,0,0,1,53,39.29a23.71,23.71,0,0,0-6.72-13.51A21.69,21.69,0,0,0,42.89,23a16.26,16.26,0,0,1-26.77,0A23.69,23.69,0,0,0,5.79,42.55V55.61a2.65,2.65,0,0,0,2.57,2.91H33.8A14.21,14.21,0,0,1,46.36,37.64Z"/><path d="M46.36,40A11.85,11.85,0,1,0,58.21,51.86,11.86,11.86,0,0,0,46.36,40Zm1.19,17.15v.57a1.26,1.26,0,0,1-2.52,0v-.34a8,8,0,0,1-1.68-.32.88.88,0,0,1-.58-1l.07-.28A.88.88,0,0,1,44,55.11a5.56,5.56,0,0,0,1.05.24,4.77,4.77,0,0,0,.76.06c1.12,0,1.71-.46,1.71-1.17s-.51-1.05-1.8-1.51c-.23-.08-.45-.17-.67-.27-1.42-.63-2.31-1.55-2.31-2.92a3.11,3.11,0,0,1,2.31-3V46a1.26,1.26,0,0,1,2.52,0v.35a6.1,6.1,0,0,1,1.16.19.89.89,0,0,1,.63,1.1l-.07.24a.89.89,0,0,1-1.11.61c-.18,0-.39-.1-.61-.14a4.75,4.75,0,0,0-.78-.06c-1.07,0-1.57.5-1.57,1s.59,1,2,1.51l.36.14c1.66.71,2.44,1.67,2.44,3.09A3.16,3.16,0,0,1,47.55,57.16Z"/></svg>