<svg xmlns="http://www.w3.org/2000/svg" xmlns:xlink="http://www.w3.org/1999/xlink" version="1.1" x="0px" y="0px" viewBox="0 0 1024 1280" style="enable-background:new 0 0 1024 1024;" xml:space="preserve"><path d="M982,513.2c-15.2-14-30.3-27.9-45.5-41.9c-36.4-33.5-72.8-67-109.2-100.5c-43.8-40.3-87.6-80.6-131.3-120.8  c-38-35-76.1-70-114.2-105c-18.5-17-36.7-34.2-55.4-51c-0.3-0.2-0.5-0.5-0.8-0.7c-12.2-11.2-30.2-11.5-42.4,0  c-14.7,13.8-29.3,27.6-43.9,41.4c-35.2,33.1-70.3,66.2-105.5,99.3c-42.4,39.9-84.7,79.8-127.1,119.8c-36.6,34.5-73.2,69-109.9,103.5  c-17.8,16.8-36,33.2-53.5,50.4c-0.3,0.2-0.5,0.5-0.8,0.7c-11.5,10.8-11.7,31.7,0,42.4c12.3,11.3,30.2,11.5,42.4,0  c14.7-13.8,29.3-27.6,43.9-41.4c1.7-1.6,3.4-3.2,5-4.7v405.5c0,10.8,9.6,19.7,20.4,19.7H841c9.3,0,18.6,0.3,27.9,0.1  c0.4,0,0.7,0.1,1.1,0.1c10.8,0,20-9.1,20-19.9V510.1c16.2,15,32.4,30.1,48.8,44.9c0.3,0.2,0.5,0.5,0.8,0.7  c11.5,10.6,31.2,12.3,42.4,0C992.6,544.1,994.3,524.6,982,513.2z M427.5,457.1c0.1-1.4,0.3-2.8,0.4-4.1c0-0.1,0-0.2,0-0.2  c0.5-2.6,0.9-5.3,1.6-7.9c1.1-4.7,2.7-9.3,4.4-13.8c-1.7,3.4,1.7-4.5,0.1-0.2c0,0,0,0.1-0.1,0.1c0-0.1,0.1-0.2,0.1-0.3  c0.6-1.2,1.1-2.4,1.7-3.6c1.2-2.4,2.5-4.7,3.8-6.9c1.4-2.3,2.8-4.4,4.3-6.6c0.1-0.1,0.2-0.4,0.4-0.6c-0.1,0.2-0.3,0.3-0.4,0.5  c0.2-0.2,0.3-0.4,0.5-0.7c0,0-0.1,0.1-0.1,0.2c0.4-0.5,0.8-1,1.2-1.5c3.3-4,7-7.8,10.9-11.3c1.1-1,3.5-4,5-4.2c-0.7,0.5-1.3,1-2,1.5  c0.7-0.5,1.4-1,2.1-1.5c1.1-0.8,2.2-1.5,3.3-2.2c4.4-2.9,9.1-5.3,13.8-7.6c0.6-0.3,1-0.5,1.1-0.6c0.6-0.2,1.1-0.3,1.5-0.4  c2.5-0.9,5.1-1.8,7.6-2.5c2.2-0.6,4.4-1.2,6.6-1.6c1.3-0.3,2.7-0.5,4-0.8c0.4-0.1,0.7-0.1,1.1-0.2c5-0.4,10-0.8,15-0.6  c2.5,0.1,5.1,0.3,7.6,0.5c0.1,0,0.2,0,0.2,0c0,0-0.1,0-0.1,0c-4.7-0.8,4.3,0.3,0.1,0c1.3,0.2,2.6,0.5,3.9,0.7  c5.7,1.1,11.3,2.8,16.8,4.8c0.4,0.2,0.8,0.3,1.2,0.5c0.3,0.1,0.6,0.2,0.8,0.3c-0.4-0.2-1-0.4-1.9-0.8c0.6-0.2,3.5,1.6,4.2,2  c2.6,1.3,5.1,2.6,7.5,4.1c2.3,1.3,4.5,2.8,6.6,4.3c0.3,0.3,0.7,0.5,1.1,0.8c0.6,0.5,1,0.7,1.1,0.8c-0.1-0.1-0.8-0.6-2-1.5  c1.2,0.2,3.1,2.6,4,3.3c3.9,3.4,7.6,7.2,11,11.2c0.5,0.6,2.3,2.2,2.5,3c-0.9-1.2-1.5-1.9-1.5-2c0.1,0.1,0.3,0.4,0.8,1.1  c0.5,0.7,1,1.4,1.5,2.1c1.5,2.2,2.9,4.4,4.2,6.6c1.5,2.7,3,5.4,4.3,8.2c0.1,0.1,0.2,0.5,0.4,0.8c-0.1-0.2-0.1-0.3-0.2-0.5  c0.1,0.1,0.1,0.3,0.3,0.6c0,0,0-0.1-0.1-0.1c0,0.1,0.1,0.3,0.2,0.5c0.3,0.8,0.7,1.7,1,2.5c2,5.5,3.6,11.1,4.6,16.9  c0.2,0.9,0.3,1.9,0.5,2.8c0-0.5-0.1-0.9-0.2-1.4c0.4,2.8,0.5,3.5,0.3,1.9c0-0.2-0.1-0.3-0.1-0.5c0,0.5,0.1,0.9,0.1,1.4  c0.3,3.3,0.4,6.5,0.5,9.8c0,2.8-0.1,5.6-0.3,8.4c0,0.3,0,0.9,0,1.7c0,0.2-0.1,0.6-0.2,1.2c-1,5.3-2.1,10.6-3.8,15.8  c-0.4,1.3-0.9,3.7-1.6,5.5c0-0.3-0.3-0.1-0.7,0.8c-0.6,1.2-1.1,2.4-1.7,3.6c-2.4,4.7-5.1,9.2-8.1,13.5c-0.3,0.3-0.5,0.7-0.8,1.1  c-0.4,0.5-0.6,0.9-0.8,1c0,0,0,0,0,0.1c0,0,0,0,0,0c-0.2,0.2-0.4,0.4-0.5,0.5c-1.5,1.8-3.2,3.6-4.8,5.3c-1.5,1.6-3.1,3.1-4.7,4.6  c-1,0.9-2,1.8-2.9,2.6c-0.7,0.6-1.3,1.1-2,1.7c-0.2,0.2-0.4,0.3-0.5,0.4c0.3-0.3,0.8-0.6,1.5-1.1c-0.3,1.1-4.3,3.1-5.4,3.8  c-2.2,1.5-4.5,2.8-6.8,4.1c-1.9,1.1-3.9,2.1-5.9,3c-0.4,0.2-0.8,0.4-1.2,0.5c-0.5,0.2-0.8,0.4-1,0.5c0.3-0.1,1.1-0.4,2.1-0.9  c-0.9,0.9-3.8,1.5-5,1.9c-4.7,1.7-9.4,3-14.3,3.9c-0.9,0.2-1.8,0.3-2.7,0.5c-0.5,0.1-0.9,0.1-1.3,0.2c-0.6,0.1-1,0.1-1.2,0.2  c0.3,0,1.2,0,2.4-0.2c-0.4,0.4-1.2,0.8-2.3,0.8c0,0,0,0,0,0c-2.1,0-4.9-0.1-6-0.1c-4,0.2-7.9,0-11.9-0.3c-1.2-0.1-2.3-0.2-3.5-0.3  c-0.1,0-0.2,0-0.2,0c0,0,0.1,0,0.1,0c4.6,0.8-4.3-0.3-0.1,0c-1.3-0.2-2.6-0.5-3.9-0.7c-2.7-0.5-5.3-1.2-7.9-1.9  c-2.6-0.7-5.1-1.5-7.6-2.5c-0.9-0.3-1.7-0.7-2.6-1c3.9,2-3.3-1.1-0.5-0.2c0.2,0.1,0.3,0.1,0.5,0.2c-4.8-2.3-9.4-4.7-13.8-7.6  c-1.1-0.7-2.2-1.5-3.3-2.2c-0.2-0.2-1.8-1.2-2.1-1.4c0.1,0.1,0.4,0.3,1,0.6c0.7,0.4,1,0.6,1.1,0.6c-0.2-0.2-1.8-1.3-2.1-1.5  c-1-0.8-2-1.7-3-2.6c-3.9-3.5-7.6-7.3-10.9-11.3c-0.3-0.3-0.5-0.7-0.8-1c-0.1-0.2-0.3-0.3-0.4-0.5c0,0.1,0.1,0.1,0.1,0.2  c-0.3-0.3-0.4-0.6-0.5-0.7c0.1,0.1,0.2,0.2,0.4,0.5c-0.2-0.4-0.4-0.6-0.4-0.7c-1.5-2.2-3-4.3-4.3-6.6c-1.1-1.9-2.2-3.8-3.2-5.8  c-0.6-1.2-1.2-2.3-1.8-3.5c-0.2-0.5-0.5-1-0.7-1.6c-1.7-4.5-3.2-9.1-4.4-13.8c-0.5-2.2-1-4.4-1.4-6.7c-0.1-0.5-0.1-0.9-0.2-1.3  c0-0.3-0.1-0.5-0.1-0.8c0.1,0.4,0.1,1.1,0.3,2c-0.6-0.6-0.4-3.9-0.5-4.8C427.2,466.9,427.1,462,427.5,457.1z M657.8,781.1  c0,0.1-0.1,0.3-0.1,0.4c-0.1,0.3-0.5,2-0.8,3.3c-0.2,0.4-0.4,0.9-0.6,1.3c-0.1,0.2-0.8,1.4-1.3,2.4c0.1-0.2,0.3-0.3,0.4-0.5  c0.2-0.2,0.3-0.3,0.4-0.4c-0.2,0.2-0.6,0.7-1,1.1c0-0.1,0.1-0.2,0.1-0.2c-0.4,0.5-0.8,1-1.3,1.5c-0.2,0.2-0.9,1-1.6,1.7  c-0.1,0-0.2,0.1-0.3,0.1c-0.6,0.2-1.1,0.7-1.7,1c-0.2,0.1-0.8,0.5-1.5,0.9c-0.1,0-0.2,0-0.3,0.1c-0.9,0.2-1.7,0.5-2.6,0.8  c-0.3,0.1-0.6,0.1-0.9,0.2c-0.8-0.2-2.3,0.2-3.2,0.2c-2,0-4,0-6,0H390.2c-2.4,0-4.7,0-7.1,0h-1.3c-0.4,0-0.9-0.1-1.3-0.1  c0.4,0.1,0.8,0.2,1.1,0.3c-0.2-0.1-4-0.2-1.9-0.3c0.2,0,0.5,0,0.7,0c-0.9-0.2-1.9-0.3-2.8-0.5c-0.5-0.1-1-0.4-1.6-0.5  c-1.1-0.6-2.2-1.2-3.3-1.8c-0.1-0.1-0.2-0.1-0.3-0.2c0.1,0.1,0.1,0.1,0.2,0.2c2.4,2.3-2.5-1.3-0.2-0.2c-0.9-0.8-1.8-1.6-2.6-2.5  c-0.2-0.2-0.3-0.4-0.5-0.6c0.9,2.1-2.4-2.5-0.8-0.9c0.3,0.3,0.5,0.6,0.8,0.9c-0.5-1.3-1.5-2.5-2.1-3.7c0.6,2.6-1.8-3.2-0.1-0.2  c0,0.1,0.1,0.1,0.1,0.2c0-0.1-0.1-0.2-0.1-0.4c-0.3-1.1-0.6-2.2-0.9-3.3c0.1,0.8,0.2,1.1-0.2-0.6c-0.1-0.6-0.2-0.9-0.3-1.1  c0.1,0.3,0.2,0.9,0.3,1.2c0,0.2,0.1,0.3,0.1,0.5c-0.1-0.5-0.2-1.1-0.2-1.3c-0.1-3.5-0.2-6.9-0.2-10.4v-47.8c0-5.5,0.1-11,0.1-16.5  c0-1.9,0.1-3.8,0.1-5.7c0-0.9,1.2-8.6,0.9-9.8c0-0.3,0.1-0.5,0.1-0.8c0.3-1.7,0.6-3.4,1-5.2c0.7-3.1,1.5-6.3,2.5-9.3  c0.5-1.4,0.9-2.8,1.4-4.2c0.2-0.4,0.7-1.8,1-2.7c-0.1,0.2-0.1,0.3-0.2,0.3c0-0.1,0.1-0.3,0.3-0.7c0.1-0.3,0.2-0.5,0.3-0.6  c0,0.1-0.2,0.5-0.3,0.9c0.4-0.9,1.2-2.7,1.4-3.2c0.6-1.3,1.3-2.6,2-3.9c1.5-2.8,3.1-5.5,4.8-8.1c0.9-1.4,1.9-2.8,2.8-4.2  c0.2-0.2,0.3-0.4,0.4-0.6c0,0,0,0-0.1,0c0.1-0.1,0.8-1,1.1-1.5c-0.1,0.1-0.1,0.2-0.2,0.3c-0.3,0.4-0.5,0.8-0.8,1.2  c1.1-0.4,5.2-6.2,6-7.1c2.1-2.3,4.4-4.5,6.7-6.6c1.1-1,2.2-1.9,3.3-2.8c0.5-0.4,1.1-0.9,1.6-1.3c3.4-2.4,6.8-4.8,10.1-7.4  c-0.1,0-0.1,0-0.1,0c0.1,0,0.3-0.1,0.5-0.3c0.1,0,0.2-0.1,0.2-0.2c0.1-0.1,0.2-0.2,0.3-0.2c0.4-0.3,0.8-0.6,1.1-0.9  c1.3-1.1,1.2-1,0.6-0.4c1.6-1.1,3.2-2.3,4.8-3.3c5.1-3.4,10.3-6.5,15.7-9.4c3.3-1.8,6.7-3.4,10-5c0.8-0.4,1.6-0.7,2.4-1.1  c0,0,0,0,0.1,0c0,0,0,0,0,0c1.1-0.5,1.7-0.7,1.7-0.7c-0.1,0-0.4,0.2-0.9,0.4c1.4-0.5,2.8-1.2,4.2-1.7c8.7-3.3,17.7-6,26.8-7.9  c2.5-0.5,4.9-1,7.4-1.4c1.1-0.2,2.2-0.3,3.2-0.5c-3.8,0.4,3.5-0.5,0.3,0c-0.1,0-0.2,0-0.3,0c0.1,0,0.2,0,0.3,0  c4.7-0.5,9.4-0.9,14.1-1c0.7,0,1.4,0,2.2-0.1c3.8-0.1,7.5,0,11.2,0.2c2,0.1,4,0.2,6,0.4c1.4,0.1,2.7,0.2,4.1,0.4  c0.4,0,0.8,0.1,1.2,0.1c2.8,0.8,6,0.9,8.9,1.5c6.4,1.3,12.7,2.9,19,4.8c3.3,1,6.5,2.1,9.8,3.3c1.5,0.6,3,1.2,4.6,1.8c0,0,0,0,0,0  c0,0,0,0,0,0c0.1,0,0.3,0.1,0.6,0.3c0.2,0.1,0.3,0.1,0.4,0.2c-0.2,0-0.3-0.1-0.5-0.2c0.6,0.3,1.4,0.6,1.5,0.7  c14.3,6.3,27.7,14.2,40.5,23.2c0,0,0,0,0.1,0.1c0.3,0.2,1.2,0.8,2,1.4c0,0,0,0,0.1,0.1c0.1,0,0.1,0.1,0.2,0.2  c0.6,0.5,1.1,0.9,1.7,1.4c2.6,2.2,5.2,4.4,7.7,6.8c2.1,2,4.2,4.1,6.1,6.3c1.2,1.3,2.3,2.5,3.4,3.8c0.4,0.4,0.7,0.9,1.1,1.3  c-0.1-0.1-0.1-0.2-0.1-0.2c0,0,0.1,0.1,0.2,0.3c0,0,0,0,0,0c0.1,0.1,0.1,0.2,0.2,0.3c1.5,1.8,0.6,0.8,0,0c1.7,2.8,9.2,13.9,9.9,15.3  c0.4,0.7,2.7,6.2,3.6,7.6c-0.5-0.8-0.9-2.8,0-0.4c0.1,0.2,0.2,0.5,0.3,0.7c0.2,0.5,0.4,0.9,0.5,1.4c0.6,1.6,1.2,3.2,1.7,4.9  c0.9,2.8,1.7,5.7,2.4,8.6c0.4,1.7,0.8,3.4,1.1,5.2c0.1,0.5,0.2,1,0.3,1.5c0,0,0-0.1,0-0.1c0,0,0,0.1,0,0.4c0,0.1,0,0.3,0.1,0.4  c0.2,0.9,0.2,1.3,0.2,1.3c0-0.1-0.2-0.8-0.3-1.3c0.2,2.7,0.8,11.2,0.8,12c0,4.5,0.1,8.9,0.1,13.3v48.3c0,4.4-0.1,8.9-0.1,13.3  c0,0.6-0.1,1.2-0.1,1.8C657.8,780.9,657.8,781,657.8,781.1C658.6,777.3,657.9,783.7,657.8,781.1z"/></svg>